<svg viewBox="0 0 800 800">
  <path d="M621.7,235.29h121.31c31.48,0,56.99-25.52,56.99-56.99V56.99C800,25.52,774.48,0,743.01,0H621.7
    c-31.48,0-56.99,25.52-56.99,56.99v26.09h-47.06V56.99C517.65,25.52,492.13,0,460.65,0H339.35c-31.48,0-56.99,25.52-56.99,56.99
    v26.09h-47.06V56.99C235.29,25.52,209.78,0,178.3,0H56.99C25.52,0,0,25.52,0,56.99V178.3c0,31.48,25.52,56.99,56.99,56.99h26.09
    v47.06H56.99C25.52,282.35,0,307.87,0,339.35v121.31c0,31.48,25.52,56.99,56.99,56.99H178.3c31.48,0,56.99-25.52,56.99-56.99v-26.09
    h47.06v26.09c0,31.48,25.52,56.99,56.99,56.99h121.31c31.48,0,56.99-25.52,56.99-56.99v-26.09h47.06v26.09
    c0,31.48,25.52,56.99,56.99,56.99h26.09v47.06H621.7c-31.48,0-56.99,25.52-56.99,56.99v26.09h-47.06V621.7
    c0-31.48-25.52-56.99-56.99-56.99H339.35c-31.48,0-56.99,25.52-56.99,56.99v26.09h-47.06V621.7c0-31.48-25.52-56.99-56.99-56.99
    H56.99C25.52,564.71,0,590.22,0,621.7v121.31C0,774.48,25.52,800,56.99,800H178.3c31.48,0,56.99-25.52,56.99-56.99v-26.09h47.06
    v26.09c0,31.48,25.52,56.99,56.99,56.99h121.31c31.48,0,56.99-25.52,56.99-56.99v-26.09h47.06v26.09
    c0,31.48,25.52,56.99,56.99,56.99h121.31c31.48,0,56.99-25.52,56.99-56.99V621.7c0-31.48-25.52-56.99-56.99-56.99h-26.09v-47.06
    h26.09c31.48,0,56.99-25.52,56.99-56.99V339.35c0-31.48-25.52-56.99-56.99-56.99H621.7c-31.48,0-56.99,25.52-56.99,56.99v26.09
    h-47.06v-26.09c0-31.48-25.52-56.99-56.99-56.99H339.35c-31.48,0-56.99,25.52-56.99,56.99v26.09h-47.06v-26.09
    c0-31.48-25.52-56.99-56.99-56.99h-26.09v-47.06h26.09c31.48,0,56.99-25.52,56.99-56.99v-26.09h47.06v26.09
    c0,31.48,25.52,56.99,56.99,56.99h121.31c31.48,0,56.99-25.52,56.99-56.99v-26.09h47.06v26.09
    C564.71,209.78,590.22,235.29,621.7,235.29z M730.88,633.82v97.06h-97.06v-97.06H730.88z M633.82,351.47h97.06v97.06h-97.06V351.47z
	  M351.47,351.47h97.06v97.06h-97.06V351.47z M166.18,351.47v97.06H69.12v-97.06H166.18z M166.18,166.18H69.12V69.12h97.06V166.18z"
	/>
</svg>
